<svg id="SvgjsSvg1001" width="288" height="288" xmlns="http://www.w3.org/2000/svg" version="1.1" xmlns:xlink="http://www.w3.org/1999/xlink" xmlns:svgjs="http://svgjs.com/svgjs"><defs id="SvgjsDefs1002"></defs><g id="SvgjsG1008" transform="matrix(1,0,0,1,0,0)"><svg xmlns="http://www.w3.org/2000/svg" width="288" height="288" enable-background="new 0 0 458.228 458.229" viewBox="0 0 458.228 458.229"><path d="M405.958,81.303c-15.021-17.78-32.731-33.265-52.6-45.852C316.754,12.259,274.402,0,230.884,0
		C169.685,0,112.149,23.832,68.875,67.106C25.601,110.38,1.769,167.916,1.769,229.114S25.601,347.85,68.875,391.123
		c43.274,43.273,100.81,67.105,162.009,67.105c47.021,0,92.212-14.145,130.688-40.906c37.567-26.131,66.195-62.395,82.788-104.87
		l-52.094-20.351c-26.149,66.943-89.498,110.199-161.384,110.199c-95.496,0-173.188-77.691-173.188-173.188
		S135.387,55.925,230.883,55.925c48.337,0,93.034,19.639,125.137,53.303l-60.872,34.043l79.391,47.296l79.392,47.299l1.263-92.403
		l1.267-92.403L405.958,81.303z" fill="#ff2aaa" class="color000 svgShape"></path></svg></g></svg>